<svg width="100%" height="100%" viewBox="0 0 1000 1000" fill="none" xmlns="http://www.w3.org/2000/svg">
    <path
            d="M527.231 10.4917C523.658 7.16601 519.414 4.5274 514.741 2.72706C510.068 0.926712 505.059 0 500 0C494.941 0 489.932 0.926712 485.259 2.72706C480.586 4.5274 476.342 7.16601 472.769 10.4917L11.2308 439.036C7.66146 442.358 4.83237 446.302 2.90532 450.64C0.978266 454.978 -0.00896536 459.627 6.13458e-05 464.32V964.288C6.13458e-05 973.759 4.05225 982.843 11.2652 989.54C18.4781 996.238 28.261 1000 38.4616 1000H384.615C394.816 1000 404.599 996.238 411.812 989.54C419.025 982.843 423.077 973.759 423.077 964.288V678.592H576.923V964.288C576.923 973.759 580.975 982.843 588.188 989.54C595.401 996.238 605.184 1000 615.385 1000H961.538C971.739 1000 981.522 996.238 988.735 989.54C995.948 982.843 1000 973.759 1000 964.288V464.32C1000.01 459.627 999.022 454.978 997.095 450.64C995.168 446.302 992.339 442.358 988.769 439.036L884.615 342.399V107.2C884.615 97.7284 880.563 88.645 873.35 81.9477C866.137 75.2504 856.354 71.4879 846.154 71.4879H769.231C759.03 71.4879 749.247 75.2504 742.034 81.9477C734.821 88.645 730.769 97.7284 730.769 107.2V199.551L527.231 10.4917ZM76.9231 928.576V479.105L500 86.2726L923.077 479.105V928.576H653.846V642.88C653.846 633.409 649.794 624.325 642.581 617.628C635.368 610.93 625.585 607.168 615.385 607.168H384.615C374.415 607.168 364.632 610.93 357.419 617.628C350.206 624.325 346.154 633.409 346.154 642.88V928.576H76.9231Z"
            fill="#000"
    />
</svg>