<svg width="83" height="32" viewBox="0 0 83 32" fill="none" xmlns="http://www.w3.org/2000/svg">
<path d="M15.7907 31.5528C11.3599 31.5528 7.84185 30.1952 5.23636 27.4801C2.63088 24.7517 1.32812 20.9211 1.32812 15.9883C1.32812 11.2302 2.63088 7.43983 5.23636 4.61732C7.85509 1.78129 11.3797 0.363281 15.8104 0.363281C16.9876 0.363281 18.0456 0.430481 18.9847 0.564881C19.9237 0.699281 20.8231 0.887461 21.6828 1.12942C22.3572 1.33102 23.0913 1.60653 23.8848 1.95595C24.6784 2.30548 25.3199 2.60783 25.8092 2.8632V10.0205H25.0553C24.6981 9.69789 24.2485 9.31481 23.7063 8.87136C23.164 8.41428 22.5489 7.97081 21.8612 7.54068C21.1736 7.11053 20.4131 6.74769 19.5797 6.45195C18.7599 6.14279 17.9001 5.98827 17.0008 5.98827C15.9295 5.98827 14.9441 6.16303 14.0448 6.51244C13.1586 6.84844 12.3122 7.43983 11.5054 8.28659C10.7648 9.05272 10.1564 10.0877 9.68025 11.3915C9.21735 12.6953 8.98589 14.2343 8.98589 16.0084C8.98589 17.8767 9.23057 19.4492 9.71992 20.7261C10.2093 21.9896 10.8507 23.0111 11.6442 23.7907C12.4114 24.5433 13.2645 25.0877 14.2035 25.4237C15.1557 25.7597 16.1015 25.9277 17.0404 25.9277C18.0192 25.9277 18.9516 25.7664 19.8376 25.4439C20.7237 25.1079 21.4711 24.7381 22.0795 24.3349C22.7408 23.9184 23.3227 23.4949 23.8252 23.0649C24.3279 22.6348 24.7643 22.2517 25.1347 21.9157H25.8092V28.9721C25.2669 29.2275 24.6387 29.5232 23.9245 29.8592C23.2103 30.1819 22.4763 30.4573 21.7224 30.6859C20.7967 30.9681 19.9303 31.1831 19.1235 31.3311C18.3168 31.4788 17.2057 31.5528 15.7907 31.5528Z" fill="#56C7F5"/>
<path d="M23.1992 16.0221C23.1992 17.8836 22.6965 19.352 21.6915 20.4273C20.6929 21.4959 19.2777 22.0301 17.446 22.0301C15.6273 22.0301 14.2123 21.4959 13.2005 20.4273C12.1953 19.352 11.6927 17.8836 11.6927 16.0221C11.6927 14.1404 12.1953 12.6686 13.2005 11.6067C14.2123 10.5382 15.6273 10.0039 17.446 10.0039C19.2712 10.0039 20.6863 10.5415 21.6915 11.6168C22.6965 12.6854 23.1992 14.1537 23.1992 16.0221ZM19.6381 16.0423C19.6381 15.3703 19.5819 14.8124 19.4696 14.3688C19.3637 13.9185 19.2149 13.5591 19.0232 13.2902C18.8181 13.008 18.5867 12.8131 18.3288 12.7055C18.0709 12.5913 17.7767 12.5342 17.446 12.5342C17.1352 12.5342 16.8541 12.5845 16.6028 12.6854C16.3515 12.7794 16.12 12.9642 15.9084 13.2398C15.7101 13.5019 15.5513 13.8615 15.4324 14.3184C15.3133 14.7755 15.2539 15.35 15.2539 16.0423C15.2539 16.7344 15.31 17.2956 15.4224 17.7257C15.5348 18.1491 15.6803 18.4884 15.8589 18.7439C16.044 19.0059 16.2755 19.1975 16.5532 19.3184C16.8309 19.4393 17.1384 19.4999 17.4757 19.4999C17.7535 19.4999 18.0345 19.4393 18.3188 19.3184C18.6099 19.1975 18.8413 19.016 19.0132 18.7741C19.2183 18.4852 19.3737 18.1391 19.4795 17.7357C19.5852 17.3259 19.6381 16.7613 19.6381 16.0423Z" fill="#56C7F5"/>
<g clip-path="url(#clip0_813_1255)">
<path d="M31.7604 8.06116H43.5783V10.6727H34.9521V14.282H39.2221C40.401 14.282 41.3786 14.4236 42.155 14.7067C42.9313 14.9897 43.5926 15.5135 44.1389 16.2778C44.6925 17.0421 44.9692 17.9374 44.9692 18.9636C44.9692 20.0181 44.6925 20.9204 44.1389 21.6706C43.5855 22.4208 42.9529 22.934 42.2412 23.21C41.5367 23.486 40.5304 23.624 39.2221 23.624H31.7604V8.06116ZM34.9521 21.0124H38.0575C39.0495 21.0124 39.7468 20.9664 40.1494 20.8744C40.5519 20.7754 40.9006 20.556 41.1953 20.2163C41.4972 19.8765 41.6482 19.459 41.6482 18.9636C41.6482 18.2417 41.3858 17.718 40.861 17.3925C40.3435 17.0598 39.4557 16.8935 38.1977 16.8935H34.9521V21.0124Z" fill="#2C363C"/>
<path d="M49.8107 15.7895L47.0611 15.3012C47.3701 14.2113 47.9021 13.4045 48.6569 12.8808C49.4117 12.3571 50.5331 12.0952 52.0211 12.0952C53.3725 12.0952 54.3789 12.2545 55.0403 12.5729C55.7016 12.8843 56.1653 13.2842 56.4312 13.7725C56.7044 14.2538 56.8409 15.142 56.8409 16.4371L56.8087 19.9191C56.8087 20.9099 56.8553 21.6424 56.9488 22.1165C57.0495 22.5836 57.2328 23.0861 57.4987 23.624H54.5012C54.422 23.4259 54.3251 23.1321 54.21 22.7428C54.1597 22.5659 54.1237 22.4492 54.1021 22.3925C53.5847 22.888 53.0311 23.2595 52.4416 23.5072C51.8521 23.7549 51.2232 23.8788 50.5547 23.8788C49.3757 23.8788 48.4448 23.5639 47.762 22.934C47.0863 22.3041 46.7484 21.5079 46.7484 20.5454C46.7484 19.9085 46.9029 19.3423 47.212 18.8469C47.5212 18.3444 47.9524 17.9622 48.506 17.7004C49.0667 17.4314 49.8717 17.1979 50.9213 16.9997C52.3375 16.7379 53.3187 16.4937 53.8649 16.2672V15.97C53.8649 15.3967 53.7212 14.9898 53.4336 14.7492C53.1461 14.5015 52.6033 14.3776 51.8055 14.3776C51.2663 14.3776 50.8459 14.4838 50.5439 14.6961C50.242 14.9013 49.9976 15.2658 49.8107 15.7895ZM53.8649 18.2099C53.4768 18.3373 52.8621 18.4895 52.0211 18.6664C51.18 18.8433 50.6301 19.0167 50.3713 19.1866C49.976 19.4626 49.7783 19.8129 49.7783 20.2375C49.7783 20.6551 49.9364 21.016 50.2528 21.3204C50.5691 21.6247 50.9716 21.7768 51.4604 21.7768C52.0068 21.7768 52.5279 21.5999 53.0239 21.246C53.3905 20.9771 53.6313 20.648 53.7464 20.2588C53.8255 20.004 53.8649 19.5192 53.8649 18.8044V18.2099Z" fill="#2C363C"/>
<path d="M59.72 12.35H62.7499V16.4795H67.0845V12.35H70.1253V23.624H67.0845V18.8893H62.7499V23.624H59.72V12.35Z" fill="#2C363C"/>
<path d="M73.0689 12.3499H76.0881V16.9572C76.5913 16.9006 76.9471 16.7484 77.1556 16.5007C77.364 16.253 77.6156 15.7116 77.9104 14.8765C78.2985 13.7654 78.7227 13.0541 79.1828 12.7427C79.6428 12.4313 80.2467 12.2756 80.9943 12.2756C81.2243 12.2756 81.6232 12.2933 82.1911 12.3287L82.2019 14.3032C81.404 14.3032 80.8936 14.3776 80.6708 14.5262C80.4479 14.6819 80.2071 15.1454 79.9483 15.9168C79.5961 16.9572 79.0893 17.5977 78.428 17.8383C79.384 18.1002 80.1927 18.9176 80.854 20.2906C80.89 20.3613 80.9296 20.4356 80.9727 20.5135L82.6656 23.624H79.4092L77.8996 20.3649C77.5905 19.7067 77.3209 19.2856 77.0909 19.1016C76.868 18.9105 76.5337 18.815 76.0881 18.815V23.624H73.0689V12.3499Z" fill="#2C363C"/>
</g>
<defs>
<clipPath id="clip0_813_1255">
<rect width="52" height="16" fill="white" transform="translate(30.6667 8)"/>
</clipPath>
</defs>
</svg>
