<svg width="83" height="32" viewBox="0 0 83 32" fill="none" xmlns="http://www.w3.org/2000/svg">
<path d="M15.7907 31.5528C11.3599 31.5528 7.84185 30.1952 5.23636 27.4801C2.63088 24.7517 1.32812 20.9211 1.32812 15.9883C1.32812 11.2302 2.63088 7.43983 5.23636 4.61732C7.85509 1.78129 11.3797 0.363281 15.8104 0.363281C16.9876 0.363281 18.0456 0.430481 18.9847 0.564881C19.9237 0.699281 20.8231 0.887461 21.6828 1.12942C22.3572 1.33102 23.0913 1.60653 23.8848 1.95595C24.6784 2.30548 25.3199 2.60783 25.8092 2.8632V10.0205H25.0553C24.6981 9.69789 24.2485 9.31481 23.7063 8.87136C23.164 8.41428 22.5489 7.97081 21.8612 7.54068C21.1736 7.11053 20.4131 6.74769 19.5797 6.45195C18.7599 6.14279 17.9001 5.98827 17.0008 5.98827C15.9295 5.98827 14.9441 6.16303 14.0448 6.51244C13.1586 6.84844 12.3122 7.43983 11.5054 8.28659C10.7648 9.05272 10.1564 10.0877 9.68025 11.3915C9.21735 12.6953 8.98589 14.2343 8.98589 16.0084C8.98589 17.8767 9.23057 19.4492 9.71992 20.7261C10.2093 21.9896 10.8507 23.0111 11.6442 23.7907C12.4114 24.5433 13.2645 25.0877 14.2035 25.4237C15.1557 25.7597 16.1015 25.9277 17.0404 25.9277C18.0192 25.9277 18.9516 25.7664 19.8376 25.4439C20.7237 25.1079 21.4711 24.7381 22.0795 24.3349C22.7408 23.9184 23.3227 23.4949 23.8252 23.0649C24.3279 22.6348 24.7643 22.2517 25.1347 21.9157H25.8092V28.9721C25.2669 29.2275 24.6387 29.5232 23.9245 29.8592C23.2103 30.1819 22.4763 30.4573 21.7224 30.6859C20.7967 30.9681 19.9303 31.1831 19.1235 31.3311C18.3168 31.4788 17.2057 31.5528 15.7907 31.5528Z" fill="#56C7F5"/>
<path d="M23.1992 16.0221C23.1992 17.8836 22.6966 19.352 21.6915 20.4273C20.693 21.4959 19.2778 22.0301 17.446 22.0301C15.6274 22.0301 14.2123 21.4959 13.2005 20.4273C12.1953 19.352 11.6927 17.8836 11.6927 16.0221C11.6927 14.1404 12.1953 12.6686 13.2005 11.6067C14.2123 10.5382 15.6274 10.0039 17.446 10.0039C19.2712 10.0039 20.6863 10.5415 21.6915 11.6168C22.6966 12.6854 23.1992 14.1537 23.1992 16.0221ZM19.6382 16.0423C19.6382 15.3703 19.5819 14.8124 19.4696 14.3688C19.3638 13.9185 19.215 13.5591 19.0232 13.2902C18.8182 13.008 18.5867 12.8131 18.3288 12.7055C18.071 12.5913 17.7767 12.5342 17.446 12.5342C17.1352 12.5342 16.8542 12.5845 16.6028 12.6854C16.3515 12.7794 16.12 12.9642 15.9084 13.2398C15.7102 13.5019 15.5514 13.8615 15.4324 14.3184C15.3134 14.7755 15.2539 15.35 15.2539 16.0423C15.2539 16.7344 15.31 17.2956 15.4224 17.7257C15.5348 18.1491 15.6803 18.4884 15.859 18.7439C16.044 19.0059 16.2755 19.1975 16.5532 19.3184C16.831 19.4393 17.1384 19.4999 17.4758 19.4999C17.7535 19.4999 18.0346 19.4393 18.3188 19.3184C18.6099 19.1975 18.8414 19.016 19.0132 18.7741C19.2183 18.4852 19.3738 18.1391 19.4795 17.7357C19.5852 17.3259 19.6382 16.7613 19.6382 16.0423Z" fill="#56C7F5"/>
<g clip-path="url(#clip0_813_855)">
<path d="M31.7604 16.0612H43.5782V18.6727H34.9521V22.282H39.222C40.4009 22.282 41.3785 22.4236 42.1549 22.7067C42.9313 22.9897 43.5926 23.5135 44.1389 24.2778C44.6925 25.0421 44.9692 25.9374 44.9692 26.9636C44.9692 28.0181 44.6925 28.9204 44.1389 29.6706C43.5854 30.4208 42.9528 30.934 42.2412 31.21C41.5367 31.486 40.5303 31.624 39.222 31.624H31.7604V16.0612ZM34.9521 29.0124H38.0575C39.0495 29.0124 39.7468 28.9664 40.1493 28.8744C40.5519 28.7754 40.9005 28.556 41.1952 28.2163C41.4972 27.8765 41.6481 27.459 41.6481 26.9636C41.6481 26.2417 41.3857 25.718 40.861 25.3925C40.3434 25.0598 39.4556 24.8935 38.1977 24.8935H34.9521V29.0124Z" fill="#2C363C"/>
<path d="M49.8107 23.7895L47.0611 23.3012C47.3701 22.2113 47.9021 21.4045 48.6569 20.8808C49.4117 20.3571 50.5331 20.0952 52.0211 20.0952C53.3725 20.0952 54.3789 20.2545 55.0403 20.5729C55.7016 20.8843 56.1653 21.2842 56.4312 21.7725C56.7044 22.2538 56.8409 23.142 56.8409 24.4371L56.8087 27.9191C56.8087 28.9099 56.8553 29.6424 56.9488 30.1165C57.0495 30.5836 57.2328 31.0861 57.4987 31.624H54.5012C54.422 31.4259 54.3251 31.1321 54.21 30.7428C54.1597 30.5659 54.1237 30.4492 54.1021 30.3925C53.5847 30.888 53.0311 31.2595 52.4416 31.5072C51.8521 31.7549 51.2232 31.8788 50.5547 31.8788C49.3757 31.8788 48.4448 31.5639 47.762 30.934C47.0863 30.3041 46.7484 29.5079 46.7484 28.5454C46.7484 27.9085 46.9029 27.3423 47.212 26.8469C47.5212 26.3444 47.9524 25.9622 48.506 25.7004C49.0667 25.4314 49.8717 25.1979 50.9213 24.9997C52.3375 24.7379 53.3187 24.4937 53.8649 24.2672V23.97C53.8649 23.3967 53.7212 22.9898 53.4336 22.7492C53.1461 22.5015 52.6033 22.3776 51.8055 22.3776C51.2663 22.3776 50.8459 22.4838 50.5439 22.6961C50.242 22.9013 49.9976 23.2658 49.8107 23.7895ZM53.8649 26.2099C53.4768 26.3373 52.8621 26.4895 52.0211 26.6664C51.18 26.8433 50.6301 27.0167 50.3713 27.1866C49.976 27.4626 49.7783 27.8129 49.7783 28.2375C49.7783 28.6551 49.9364 29.016 50.2528 29.3204C50.5691 29.6247 50.9716 29.7768 51.4604 29.7768C52.0068 29.7768 52.5279 29.5999 53.0239 29.246C53.3905 28.9771 53.6313 28.648 53.7464 28.2588C53.8255 28.004 53.8649 27.5192 53.8649 26.8044V26.2099Z" fill="#2C363C"/>
<path d="M59.72 20.35H62.7498V24.4795H67.0845V20.35H70.1253V31.624H67.0845V26.8893H62.7498V31.624H59.72V20.35Z" fill="#2C363C"/>
<path d="M73.0688 20.3499H76.088V24.9572C76.5912 24.9006 76.947 24.7484 77.1555 24.5007C77.3639 24.253 77.6155 23.7116 77.9103 22.8765C78.2984 21.7654 78.7226 21.0541 79.1827 20.7427C79.6427 20.4313 80.2466 20.2756 80.9942 20.2756C81.2242 20.2756 81.6231 20.2933 82.191 20.3287L82.2018 22.3032C81.4039 22.3032 80.8935 22.3776 80.6707 22.5262C80.4478 22.6819 80.207 23.1454 79.9482 23.9168C79.596 24.9572 79.0892 25.5977 78.4279 25.8383C79.3839 26.1002 80.1926 26.9176 80.8539 28.2906C80.8899 28.3613 80.9295 28.4356 80.9726 28.5135L82.6655 31.624H79.4091L77.8995 28.3649C77.5904 27.7067 77.3208 27.2856 77.0908 27.1016C76.8679 26.9105 76.5336 26.815 76.088 26.815V31.624H73.0688V20.3499Z" fill="#2C363C"/>
</g>
<defs>
<clipPath id="clip0_813_855">
<rect width="52" height="16" fill="white" transform="translate(30.6666 16)"/>
</clipPath>
</defs>
</svg>
