<svg width="17" height="17" viewBox="0 0 17 17" fill="none" xmlns="http://www.w3.org/2000/svg">
<g id="cib:viber" clip-path="url(#clip0_14194_9826)">
<path id="Vector" d="M8.07436 0.00247369C6.71011 0.0189424 3.77708 0.24313 2.13658 1.74816C0.916295 2.95729 0.490232 4.74494 0.440295 6.95547C0.398857 9.15804 0.34892 13.2944 4.33595 14.4206V16.136C4.33595 16.136 4.31098 16.8224 4.76467 16.9632C5.32355 17.1401 5.64176 16.612 6.17301 16.0446L7.1638 14.9242C9.89177 15.1511 11.9812 14.6283 12.2218 14.5508C12.7754 14.3739 15.8933 13.9754 16.4028 9.83857C16.9255 5.56626 16.1483 2.87441 14.7453 1.65679H14.7368C14.3134 1.26685 12.6118 0.0269112 8.81014 0.0130987C8.81014 0.0130987 8.52805 -0.00602631 8.07436 0.00194244V0.00247369ZM8.12111 1.20363C8.50839 1.20097 8.74373 1.21744 8.74373 1.21744C11.9615 1.22594 13.4974 2.19441 13.8597 2.5206C15.0412 3.53316 15.65 5.95991 15.2043 9.52673C14.7809 12.9852 12.2521 13.204 11.7841 13.3533C11.5849 13.4171 9.74461 13.8708 7.42623 13.7215C7.42623 13.7215 5.69967 15.805 5.15992 16.3416C5.07439 16.4356 4.97451 16.4633 4.91076 16.4494C4.81939 16.4271 4.79176 16.314 4.79708 16.1589L4.81355 13.3119C1.43214 12.3769 1.63136 8.84885 1.66748 7.00594C1.70892 5.16304 2.05476 3.65535 3.08433 2.63429C4.47036 1.38107 6.96086 1.21213 8.12005 1.20363H8.12111ZM8.37611 3.04601C8.34828 3.04572 8.32067 3.05096 8.29487 3.0614C8.26907 3.07184 8.24559 3.08728 8.22579 3.10683C8.20598 3.12639 8.19025 3.14967 8.17949 3.17534C8.16872 3.20101 8.16315 3.22855 8.16308 3.25638C8.16308 3.37538 8.25976 3.46941 8.37611 3.46941C8.90284 3.45939 9.42635 3.55376 9.91644 3.74706C10.4065 3.94036 10.8535 4.22877 11.2316 4.59566C12.0035 5.34526 12.3796 6.35251 12.394 7.66947C12.394 7.78582 12.488 7.88251 12.607 7.88251V7.87401C12.6631 7.87415 12.7169 7.85211 12.7568 7.81271C12.7967 7.7733 12.8195 7.71971 12.82 7.66363C12.8458 7.04374 12.7453 6.42508 12.5245 5.84525C12.3038 5.26542 11.9675 4.73653 11.536 4.29072C10.695 3.46888 9.62933 3.04547 8.37611 3.04547V3.04601ZM5.57589 3.53316C5.42552 3.51119 5.27216 3.54137 5.14133 3.61869H5.13017C4.82643 3.79674 4.55282 4.02176 4.31948 4.28541C4.12558 4.5096 4.02039 4.73644 3.99276 4.95479C3.9763 5.08494 3.98745 5.2151 4.02623 5.33941L4.04005 5.34791C4.25839 5.98966 4.54367 6.60697 4.89217 7.18816C5.34109 8.00467 5.89355 8.7598 6.53586 9.43482L6.55498 9.46244L6.58526 9.48476L6.60439 9.50707L6.6267 9.52619C7.30417 10.1704 8.06112 10.7254 8.8792 11.1779C9.8142 11.6868 10.3816 11.9274 10.7221 12.0273V12.0326C10.822 12.0629 10.9128 12.0767 11.0042 12.0767C11.2944 12.0555 11.5692 11.9376 11.7846 11.742C12.0471 11.5086 12.2696 11.2339 12.4434 10.9287V10.9234C12.6065 10.6163 12.5512 10.3257 12.3159 10.1292C11.8445 9.71718 11.3349 9.35125 10.7938 9.03638C10.4315 8.83982 10.0634 8.95882 9.91408 9.15804L9.59586 9.55913C9.43276 9.75835 9.13633 9.73072 9.13633 9.73072L9.12783 9.73604C6.9173 9.17132 6.32761 6.93316 6.32761 6.93316C6.32761 6.93316 6.29998 6.62876 6.50451 6.47363L6.90295 6.15276C7.09367 5.99763 7.22648 5.63001 7.02195 5.26716C6.70926 4.72537 6.34413 4.21558 5.93183 3.74513C5.84169 3.63422 5.71524 3.55876 5.57483 3.5321L5.57589 3.53316ZM8.74373 4.16429C8.46164 4.16429 8.46164 4.59035 8.74639 4.59035C9.09716 4.59604 9.44338 4.6708 9.76525 4.81036C10.0871 4.94992 10.3783 5.15154 10.6222 5.40369C10.8447 5.64914 11.0157 5.93674 11.125 6.24947C11.2344 6.56219 11.2798 6.89368 11.2587 7.22429C11.2596 7.28024 11.2825 7.33358 11.3223 7.3729C11.3621 7.41222 11.4157 7.43439 11.4717 7.43466L11.4802 7.44582C11.5366 7.4454 11.5905 7.42282 11.6304 7.38296C11.6702 7.3431 11.6928 7.28916 11.6932 7.23279C11.7124 6.38863 11.4499 5.68047 10.9351 5.1131C10.4177 4.54572 9.69573 4.22751 8.77401 4.16429H8.74373V4.16429ZM9.09276 5.30966C8.80217 5.30116 8.79101 5.73572 9.07895 5.74422C9.77914 5.78035 10.1191 6.13416 10.1638 6.86197C10.1647 6.91722 10.1873 6.96989 10.2266 7.00871C10.2659 7.04754 10.3189 7.06942 10.3741 7.06969H10.3826C10.411 7.06848 10.4389 7.06161 10.4647 7.0495C10.4904 7.03739 10.5134 7.02028 10.5325 6.99916C10.5515 6.97804 10.5662 6.95335 10.5755 6.92651C10.5849 6.89967 10.5889 6.87123 10.5872 6.84285C10.5372 5.89404 10.0198 5.3596 9.10126 5.31019H9.09276V5.30966Z" fill="#317EB0"/>
</g>
<defs>
<clipPath id="clip0_14194_9826">
<rect width="17" height="17" fill="white"/>
</clipPath>
</defs>
</svg>
