<svg width="77" height="29" viewBox="0 0 77 29" fill="none" xmlns="http://www.w3.org/2000/svg">
<path d="M14.0818 27.6111C10.1304 27.6111 6.9928 26.4233 4.66912 24.0476C2.34544 21.6602 1.18359 18.3083 1.18359 13.9922C1.18359 9.82884 2.34544 6.51229 4.66912 4.0426C7.0046 1.56107 10.148 0.320312 14.0995 0.320312C15.1493 0.320312 16.0929 0.379113 16.9304 0.496713C17.7679 0.614313 18.5699 0.77897 19.3367 0.990687C19.9382 1.16709 20.5929 1.40816 21.3005 1.7139C22.0083 2.01973 22.5804 2.28429 23.0168 2.50775V8.77035H22.3445C22.026 8.48809 21.6249 8.15291 21.1413 7.76488C20.6577 7.36493 20.1092 6.97691 19.4958 6.60053C18.8826 6.22416 18.2043 5.90667 17.4611 5.6479C16.7299 5.37738 15.9632 5.24217 15.1611 5.24217C14.2057 5.24217 13.3269 5.39509 12.5248 5.70083C11.7345 5.99483 10.9796 6.51229 10.2601 7.2532C9.59961 7.92358 9.05699 8.82915 8.63236 9.97002C8.21952 11.1108 8.0131 12.4574 8.0131 14.0098C8.0131 15.6445 8.23131 17.0205 8.66774 18.1378C9.10418 19.2433 9.67625 20.1372 10.3839 20.8193C11.0681 21.4778 11.8289 21.9542 12.6664 22.2482C13.5157 22.5422 14.359 22.6892 15.1964 22.6892C16.0693 22.6892 16.9009 22.5481 17.6911 22.2658C18.4814 21.9718 19.1479 21.6484 19.6905 21.2956C20.2802 20.931 20.7992 20.5605 21.2474 20.1842C21.6957 19.8079 22.0849 19.4727 22.4152 19.1787H23.0168V25.353C22.5332 25.5765 21.9729 25.8353 21.336 26.1293C20.699 26.4115 20.0443 26.6526 19.372 26.8526C18.5464 27.0995 17.7738 27.2877 17.0542 27.4171C16.3348 27.5464 15.3439 27.6111 14.0818 27.6111Z" fill="#317EB0"/>
<path d="M20.6877 14.0198C20.6877 15.6487 20.2395 16.9335 19.3431 17.8744C18.4525 18.8093 17.1905 19.2768 15.5568 19.2768C13.9349 19.2768 12.6728 18.8093 11.7705 17.8744C10.874 16.9335 10.4258 15.6487 10.4258 14.0198C10.4258 12.3733 10.874 11.0855 11.7705 10.1563C12.6728 9.22142 13.9349 8.75391 15.5568 8.75391C17.1846 8.75391 18.4466 9.22431 19.3431 10.1652C20.2395 11.1002 20.6877 12.3851 20.6877 14.0198ZM17.5119 14.0374C17.5119 13.4494 17.4617 12.9613 17.3615 12.5732C17.2671 12.1792 17.1344 11.8646 16.9634 11.6294C16.7805 11.3825 16.5741 11.2119 16.3441 11.1178C16.1141 11.0178 15.8517 10.9679 15.5568 10.9679C15.2796 10.9679 15.0289 11.012 14.8048 11.1002C14.5807 11.1825 14.3743 11.3442 14.1856 11.5853C14.0086 11.8147 13.867 12.1293 13.761 12.5291C13.6548 12.929 13.6017 13.4317 13.6017 14.0374C13.6017 14.6431 13.6518 15.1341 13.7521 15.5105C13.8524 15.8809 13.9821 16.1779 14.1413 16.4013C14.3065 16.6307 14.5128 16.7983 14.7606 16.9041C15.0083 17.0099 15.2825 17.0629 15.5833 17.0629C15.831 17.0629 16.0817 17.0099 16.3352 16.9041C16.5947 16.7983 16.8012 16.6395 16.9545 16.4278C17.1374 16.175 17.276 15.8721 17.3703 15.5192C17.4647 15.1606 17.5119 14.6666 17.5119 14.0374Z" fill="#317EB0"/>
<path d="M26.1025 12.5661H37.7374V15.1776H29.2448V18.787H33.4486C34.6093 18.787 35.5718 18.9285 36.3361 19.2116C37.1005 19.4947 37.7516 20.0184 38.2894 20.7828C38.8344 21.5471 39.1068 22.4424 39.1068 23.4686C39.1068 24.5231 38.8344 25.4254 38.2894 26.1756C37.7445 26.9258 37.1217 27.4389 36.421 27.7149C35.7275 27.9909 34.7367 28.1289 33.4486 28.1289H26.1025V12.5661ZM29.2448 25.5174H32.3021C33.2788 25.5174 33.9653 25.4714 34.3616 25.3794C34.7579 25.2803 35.1011 25.0609 35.3913 24.7212C35.6886 24.3815 35.8372 23.964 35.8372 23.4686C35.8372 22.7467 35.5789 22.223 35.0622 21.8974C34.5527 21.5648 33.6786 21.3985 32.4401 21.3985H29.2448V25.5174ZM43.8733 20.2944L41.1663 19.8061C41.4706 18.7162 41.9943 17.9094 42.7375 17.3857C43.4806 16.862 44.5846 16.6001 46.0496 16.6001C47.3801 16.6001 48.3709 16.7594 49.022 17.0778C49.6731 17.3892 50.1296 17.7891 50.3915 18.2774C50.6604 18.7587 50.7949 19.6469 50.7949 20.942L50.763 24.424C50.763 25.4148 50.809 26.1473 50.901 26.6215C51.0001 27.0886 51.1806 27.591 51.4424 28.1289H48.4912C48.4134 27.9307 48.3178 27.637 48.2046 27.2478C48.1551 27.0709 48.1197 26.9541 48.0984 26.8975C47.5889 27.3929 47.0439 27.7644 46.4636 28.0121C45.8833 28.2598 45.264 28.3837 44.6058 28.3837C43.4452 28.3837 42.5287 28.0687 41.8563 27.4389C41.1911 26.809 40.8585 26.0128 40.8585 25.0503C40.8585 24.4134 41.0106 23.8472 41.3149 23.3518C41.6193 22.8493 42.0439 22.4671 42.5888 22.2053C43.1409 21.9364 43.9335 21.7028 44.9668 21.5046C46.361 21.2428 47.327 20.9986 47.8649 20.7722V20.4749C47.8649 19.9017 47.7233 19.4947 47.4403 19.2541C47.1572 19.0064 46.6228 18.8825 45.8373 18.8825C45.3065 18.8825 44.8925 18.9887 44.5952 19.201C44.298 19.4062 44.0574 19.7707 43.8733 20.2944ZM47.8649 22.7148C47.4827 22.8422 46.8776 22.9944 46.0496 23.1713C45.2216 23.3483 44.6801 23.5216 44.4254 23.6915C44.0361 23.9675 43.8415 24.3178 43.8415 24.7425C43.8415 25.16 43.9972 25.521 44.3086 25.8253C44.62 26.1296 45.0163 26.2818 45.4976 26.2818C46.0354 26.2818 46.5485 26.1048 47.0369 25.751C47.3978 25.482 47.6349 25.1529 47.7481 24.7637C47.826 24.5089 47.8649 24.0241 47.8649 23.3093V22.7148ZM53.6293 16.8549H56.6123V20.9845H60.8799V16.8549H63.8735V28.1289H60.8799V23.3943H56.6123V28.1289H53.6293V16.8549ZM66.7716 16.8549H69.7441V21.4622C70.2395 21.4056 70.5898 21.2534 70.795 21.0057C71.0003 20.758 71.248 20.2166 71.5381 19.3815C71.9203 18.2704 72.3379 17.5591 72.7908 17.2477C73.2438 16.9363 73.8382 16.7806 74.5743 16.7806C74.8007 16.7806 75.1935 16.7983 75.7526 16.8337L75.7632 18.8082C74.9777 18.8082 74.4752 18.8825 74.2558 19.0312C74.0364 19.1869 73.7993 19.6504 73.5445 20.4218C73.1977 21.4622 72.6988 22.1027 72.0477 22.3433C72.989 22.6051 73.7852 23.4226 74.4363 24.7955C74.4716 24.8663 74.5106 24.9406 74.553 25.0185L76.2197 28.1289H73.0137L71.5275 24.8699C71.2232 24.2117 70.9578 23.7906 70.7313 23.6066C70.5119 23.4155 70.1829 23.3199 69.7441 23.3199V28.1289H66.7716V16.8549Z" fill="#FA614A"/>
</svg>
