<svg width="27" height="31" viewBox="0 0 27 31" fill="none" xmlns="http://www.w3.org/2000/svg">
<path id="ic_ruble" d="M5.47059 30C5.47059 30.5523 5.9183 31 6.47059 31H8.11765C8.66993 31 9.11765 30.5523 9.11765 30V25.5294H19.0588C19.6111 25.5294 20.0588 25.0817 20.0588 24.5294V22.8824C20.0588 22.3301 19.6111 21.8824 19.0588 21.8824H9.11765V18.2353H17.3235C22.351 18.2353 26.4412 14.1451 26.4412 9.11765C26.4412 4.09018 22.351 0 17.3235 0H7.29412C6.81049 0 6.34667 0.192122 6.00469 0.5341C5.66271 0.876078 5.47059 1.3399 5.47059 1.82353V14.5882H1C0.447717 14.5882 0 15.036 0 15.5882V17.2353C0 17.7876 0.447715 18.2353 1 18.2353H5.47059V21.8824H1C0.447717 21.8824 0 22.3301 0 22.8824V24.5294C0 25.0817 0.447715 25.5294 1 25.5294H5.47059V30ZM9.11765 3.64706H17.3235C20.3396 3.64706 22.7941 6.10153 22.7941 9.11765C22.7941 12.1338 20.3396 14.5882 17.3235 14.5882H9.11765V3.64706Z" fill="#317EB0"/>
</svg>
