<svg width="31" height="31" viewBox="0 0 31 31" fill="none" xmlns="http://www.w3.org/2000/svg">
<path id="ic_cashback" d="M27.8321 14.7929C27.4416 15.1834 27.4416 15.8166 27.8321 16.2071L29.9276 18.3026C30.4353 18.8103 30.2585 19.6716 29.5919 19.9382L26.9036 21.0136C26.4673 21.1881 26.2113 21.6429 26.2886 22.1064L26.8948 25.744C27.0076 26.4209 26.4209 27.0076 25.744 26.8948L22.1064 26.2886C21.6429 26.2113 21.1881 26.4672 21.0136 26.9036L19.9382 29.5919C19.6716 30.2585 18.8103 30.4353 18.3026 29.9276L16.2071 27.8321C15.8166 27.4416 15.1834 27.4416 14.7929 27.8321L12.6974 29.9276C12.1897 30.4353 11.3284 30.2585 11.0618 29.5919L9.98643 26.9036C9.8119 26.4673 9.3571 26.2113 8.89356 26.2886L5.25595 26.8948C4.57913 27.0076 3.99236 26.4209 4.10516 25.744L4.71143 22.1064C4.78868 21.6429 4.53275 21.1881 4.09642 21.0136L1.40807 19.9382C0.741504 19.6716 0.564712 18.8103 1.07236 18.3026L3.16789 16.2071C3.55842 15.8166 3.55842 15.1834 3.16789 14.7929L1.07236 12.6974C0.564713 12.1897 0.741503 11.3284 1.40807 11.0618L4.09642 9.98643C4.53275 9.8119 4.78868 9.3571 4.71143 8.89356L4.10516 5.25595C3.99236 4.57913 4.57913 3.99236 5.25595 4.10516L8.89355 4.71143C9.3571 4.78868 9.8119 4.53275 9.98643 4.09642L11.0618 1.40807C11.3284 0.741504 12.1897 0.564712 12.6974 1.07236L14.7929 3.16789C15.1834 3.55842 15.8166 3.55842 16.2071 3.16789L18.3026 1.07236C18.8103 0.564713 19.6716 0.741503 19.9382 1.40807L21.0136 4.09642C21.1881 4.53275 21.6429 4.78868 22.1064 4.71143L25.744 4.10516C26.4209 3.99236 27.0076 4.57913 26.8948 5.25595L26.2886 8.89355C26.2113 9.3571 26.4672 9.8119 26.9036 9.98643L29.5919 11.0618C30.2585 11.3284 30.4353 12.1897 29.9276 12.6974L27.8321 14.7929ZM10.6562 7.75C9.84896 7.75 9.16276 8.12842 8.59766 8.88525C8.03255 9.64209 7.75 10.5553 7.75 11.625C7.75 12.6947 8.03255 13.6079 8.59766 14.3647C9.16276 15.1216 9.84896 15.5 10.6562 15.5C11.4635 15.5 12.1497 15.1216 12.7148 14.3647C13.2799 13.6079 13.5625 12.6947 13.5625 11.625C13.5625 10.5553 13.2799 9.64209 12.7148 8.88525C12.1497 8.12842 11.4635 7.75 10.6562 7.75ZM20.3438 7.75H19.375C19.2943 7.75 19.2186 7.76514 19.1479 7.79541C19.0773 7.82568 19.0218 7.85091 18.9814 7.87109C18.9411 7.89128 18.8856 7.94678 18.8149 8.0376C18.7443 8.12842 18.6989 8.18896 18.6787 8.21924C18.6585 8.24951 18.6131 8.33024 18.5425 8.46143C18.4718 8.59261 18.4264 8.67839 18.4062 8.71875L9.83887 22.2812C9.69759 22.5234 9.72786 22.7454 9.92969 22.9473C10.1315 23.1491 10.3737 23.25 10.6562 23.25H11.625C11.7057 23.25 11.7713 23.245 11.8218 23.2349C11.8722 23.2248 11.9277 23.1995 11.9883 23.1592C12.0488 23.1188 12.0942 23.0835 12.1245 23.0532C12.1548 23.0229 12.1951 22.9674 12.2456 22.8867C12.2961 22.806 12.3314 22.7454 12.3516 22.7051C12.3717 22.6647 12.4121 22.5941 12.4727 22.4932C12.5332 22.3923 12.5736 22.3216 12.5938 22.2812L21.1611 8.71875C21.3024 8.47656 21.2721 8.25456 21.0703 8.05273C20.8685 7.85091 20.6263 7.75 20.3438 7.75ZM20.3438 15.5C19.5365 15.5 18.8503 15.8784 18.2852 16.6353C17.7201 17.3921 17.4375 18.3053 17.4375 19.375C17.4375 20.4447 17.7201 21.3579 18.2852 22.1147C18.8503 22.8716 19.5365 23.25 20.3438 23.25C21.151 23.25 21.8372 22.8716 22.4023 22.1147C22.9674 21.3579 23.25 20.4447 23.25 19.375C23.25 18.3053 22.9674 17.3921 22.4023 16.6353C21.8372 15.8784 21.151 15.5 20.3438 15.5ZM20.3438 21.3125C20.0814 21.3125 19.8543 21.1208 19.6626 20.7373C19.4709 20.3538 19.375 19.8947 19.375 19.3599C19.375 18.825 19.4709 18.3709 19.6626 17.9976C19.8543 17.6242 20.0814 17.4375 20.3438 17.4375C20.6061 17.4375 20.8332 17.6242 21.0249 17.9976C21.2166 18.3709 21.3125 18.825 21.3125 19.3599C21.3125 19.8947 21.2166 20.3538 21.0249 20.7373C20.8332 21.1208 20.6061 21.3125 20.3438 21.3125ZM10.6562 13.5625C10.3939 13.5625 10.1668 13.3708 9.9751 12.9873C9.78337 12.6038 9.6875 12.1447 9.6875 11.6099C9.6875 11.075 9.78337 10.6209 9.9751 10.2476C10.1668 9.87419 10.3939 9.6875 10.6562 9.6875C10.9186 9.6875 11.1457 9.87419 11.3374 10.2476C11.5291 10.6209 11.625 11.075 11.625 11.6099C11.625 12.1447 11.5291 12.6038 11.3374 12.9873C11.1457 13.3708 10.9186 13.5625 10.6562 13.5625Z" fill="#317EB0"/>
</svg>
